<svg width="26" height="26" viewBox="0 0 26 26" fill="none" xmlns="http://www.w3.org/2000/svg">
<path d="M13 0C13.3448 0 13.6754 0.136964 13.9192 0.380761C14.163 0.624558 14.3 0.955218 14.3 1.3V2.6C14.3 2.94478 14.163 3.27544 13.9192 3.51924C13.6754 3.76304 13.3448 3.9 13 3.9C12.6552 3.9 12.3246 3.76304 12.0808 3.51924C11.837 3.27544 11.7 2.94478 11.7 2.6V1.3C11.7 0.955218 11.837 0.624558 12.0808 0.380761C12.3246 0.136964 12.6552 0 13 0ZM22.1923 3.8077C22.436 4.05149 22.5729 4.38209 22.5729 4.7268C22.5729 5.07151 22.436 5.40211 22.1923 5.6459L21.2732 6.565C21.1533 6.68916 21.0098 6.7882 20.8512 6.85633C20.6926 6.92446 20.522 6.96033 20.3494 6.96183C20.1768 6.96333 20.0056 6.93043 19.8459 6.86507C19.6861 6.7997 19.5409 6.70317 19.4189 6.58111C19.2968 6.45905 19.2003 6.31391 19.1349 6.15414C19.0696 5.99437 19.0367 5.82319 19.0382 5.65058C19.0397 5.47796 19.0755 5.30738 19.1437 5.14877C19.2118 4.99017 19.3108 4.84672 19.435 4.7268L20.3541 3.8077C20.5979 3.56399 20.9285 3.42708 21.2732 3.42708C21.6179 3.42708 21.9485 3.56399 22.1923 3.8077ZM3.8077 3.8077C4.05149 3.56399 4.38209 3.42708 4.7268 3.42708C5.07151 3.42708 5.40211 3.56399 5.6459 3.8077L6.565 4.7268C6.80181 4.97198 6.93284 5.30037 6.92988 5.64122C6.92691 5.98208 6.79019 6.30813 6.54916 6.54916C6.30813 6.79019 5.98208 6.92691 5.64122 6.92988C5.30037 6.93284 4.97198 6.80181 4.7268 6.565L3.8077 5.6459C3.56399 5.40211 3.42708 5.07151 3.42708 4.7268C3.42708 4.38209 3.56399 4.05149 3.8077 3.8077ZM13 7.8C11.6209 7.8 10.2982 8.34785 9.32304 9.32304C8.34785 10.2982 7.8 11.6209 7.8 13C7.8 14.3791 8.34785 15.7018 9.32304 16.677C10.2982 17.6521 11.6209 18.2 13 18.2C14.3791 18.2 15.7018 17.6521 16.677 16.677C17.6521 15.7018 18.2 14.3791 18.2 13C18.2 11.6209 17.6521 10.2982 16.677 9.32304C15.7018 8.34785 14.3791 7.8 13 7.8ZM5.2 13C5.2 10.9313 6.02178 8.94735 7.48457 7.48457C8.94735 6.02178 10.9313 5.2 13 5.2C15.0687 5.2 17.0527 6.02178 18.5154 7.48457C19.9782 8.94735 20.8 10.9313 20.8 13C20.8 15.0687 19.9782 17.0527 18.5154 18.5154C17.0527 19.9782 15.0687 20.8 13 20.8C10.9313 20.8 8.94735 19.9782 7.48457 18.5154C6.02178 17.0527 5.2 15.0687 5.2 13ZM0 13C0 12.6552 0.136964 12.3246 0.380761 12.0808C0.624558 11.837 0.955218 11.7 1.3 11.7H2.6C2.94478 11.7 3.27544 11.837 3.51924 12.0808C3.76304 12.3246 3.9 12.6552 3.9 13C3.9 13.3448 3.76304 13.6754 3.51924 13.9192C3.27544 14.163 2.94478 14.3 2.6 14.3H1.3C0.955218 14.3 0.624558 14.163 0.380761 13.9192C0.136964 13.6754 0 13.3448 0 13ZM22.1 13C22.1 12.6552 22.237 12.3246 22.4808 12.0808C22.7246 11.837 23.0552 11.7 23.4 11.7H24.7C25.0448 11.7 25.3754 11.837 25.6192 12.0808C25.863 12.3246 26 12.6552 26 13C26 13.3448 25.863 13.6754 25.6192 13.9192C25.3754 14.163 25.0448 14.3 24.7 14.3H23.4C23.0552 14.3 22.7246 14.163 22.4808 13.9192C22.237 13.6754 22.1 13.3448 22.1 13ZM4.7268 19.435C4.97198 19.1982 5.30037 19.0672 5.64122 19.0701C5.98208 19.0731 6.30813 19.2098 6.54916 19.4508C6.79019 19.6919 6.92691 20.0179 6.92988 20.3588C6.93284 20.6996 6.80181 21.028 6.565 21.2732L5.6459 22.1923C5.40072 22.4291 5.07233 22.5601 4.73148 22.5572C4.39062 22.5542 4.06457 22.4175 3.82354 22.1765C3.58251 21.9354 3.44579 21.6094 3.44282 21.2685C3.43986 20.9277 3.57089 20.5993 3.8077 20.3541L4.7268 19.435ZM19.435 21.2732C19.1982 21.028 19.0672 20.6996 19.0701 20.3588C19.0731 20.0179 19.2098 19.6919 19.4508 19.4508C19.6919 19.2098 20.0179 19.0731 20.3588 19.0701C20.6996 19.0672 21.028 19.1982 21.2732 19.435L22.1923 20.3541C22.4291 20.5993 22.5601 20.9277 22.5572 21.2685C22.5542 21.6094 22.4175 21.9354 22.1765 22.1765C21.9354 22.4175 21.6094 22.5542 21.2685 22.5572C20.9277 22.5601 20.5993 22.4291 20.3541 22.1923L19.435 21.2732ZM13 22.1C13.3448 22.1 13.6754 22.237 13.9192 22.4808C14.163 22.7246 14.3 23.0552 14.3 23.4V24.7C14.3 25.0448 14.163 25.3754 13.9192 25.6192C13.6754 25.863 13.3448 26 13 26C12.6552 26 12.3246 25.863 12.0808 25.6192C11.837 25.3754 11.7 25.0448 11.7 24.7V23.4C11.7 23.0552 11.837 22.7246 12.0808 22.4808C12.3246 22.237 12.6552 22.1 13 22.1Z" fill="#36393E"/>
</svg>
