<svg width="86" height="99" viewBox="0 0 86 99" fill="none" xmlns="http://www.w3.org/2000/svg">
<path d="M6.19202 88.9813C6.19202 91.4186 7.16021 93.756 8.88362 95.4794C10.607 97.2028 12.9445 98.171 15.3817 98.171H70.5199C72.9571 98.171 75.2946 97.2028 77.018 95.4794C78.7414 93.756 79.7096 91.4186 79.7096 88.9813V24.6534H6.19202V88.9813ZM58.267 39.9696C58.267 39.1572 58.5897 38.378 59.1642 37.8036C59.7386 37.2291 60.5178 36.9063 61.3302 36.9063C62.1426 36.9063 62.9218 37.2291 63.4962 37.8036C64.0707 38.378 64.3934 39.1572 64.3934 39.9696V82.8548C64.3934 83.6672 64.0707 84.4464 63.4962 85.0209C62.9218 85.5953 62.1426 85.9181 61.3302 85.9181C60.5178 85.9181 59.7386 85.5953 59.1642 85.0209C58.5897 84.4464 58.267 83.6672 58.267 82.8548V39.9696ZM39.8876 39.9696C39.8876 39.1572 40.2103 38.378 40.7848 37.8036C41.3592 37.2291 42.1384 36.9063 42.9508 36.9063C43.7632 36.9063 44.5424 37.2291 45.1168 37.8036C45.6913 38.378 46.014 39.1572 46.014 39.9696V82.8548C46.014 83.6672 45.6913 84.4464 45.1168 85.0209C44.5424 85.5953 43.7632 85.9181 42.9508 85.9181C42.1384 85.9181 41.3592 85.5953 40.7848 85.0209C40.2103 84.4464 39.8876 83.6672 39.8876 82.8548V39.9696ZM21.5082 39.9696C21.5082 39.1572 21.8309 38.378 22.4054 37.8036C22.9798 37.2291 23.759 36.9063 24.5714 36.9063C25.3838 36.9063 26.163 37.2291 26.7374 37.8036C27.3119 38.378 27.6346 39.1572 27.6346 39.9696V82.8548C27.6346 83.6672 27.3119 84.4464 26.7374 85.0209C26.163 85.5953 25.3838 85.9181 24.5714 85.9181C23.759 85.9181 22.9798 85.5953 22.4054 85.0209C21.8309 84.4464 21.5082 83.6672 21.5082 82.8548V39.9696ZM82.7728 6.27403H59.7986L57.9989 2.69388C57.6177 1.92848 57.0305 1.28465 56.3033 0.834804C55.5761 0.38496 54.7378 0.146958 53.8827 0.147571H31.9997C31.1466 0.144291 30.3098 0.381406 29.5852 0.83175C28.8605 1.28209 28.2774 1.92745 27.9027 2.69388L26.103 6.27403H3.12878C2.31636 6.27403 1.53722 6.59677 0.962752 7.17123C0.388284 7.7457 0.0655518 8.52485 0.0655518 9.33727L0.0655518 15.4637C0.0655518 16.2761 0.388284 17.0553 0.962752 17.6298C1.53722 18.2042 2.31636 18.527 3.12878 18.527H82.7728C83.5852 18.527 84.3644 18.2042 84.9388 17.6298C85.5133 17.0553 85.836 16.2761 85.836 15.4637V9.33727C85.836 8.52485 85.5133 7.7457 84.9388 7.17123C84.3644 6.59677 83.5852 6.27403 82.7728 6.27403Z" fill="black"/>
</svg>
